<svg xmlns="http://www.w3.org/2000/svg" xmlns:xlink="http://www.w3.org/1999/xlink" width="80" zoomAndPan="magnify" viewBox="0 0 60 60" height="80" preserveAspectRatio="xMidYMid meet" version="1.0"><path fill="#ffffff" d="M 50.042969 9.949219 L 50.042969 50.042969 L 9.949219 50.042969 L 9.949219 9.949219 Z M 26.824219 19.972656 L 22.917969 19.972656 L 15.503906 40.019531 L 19.027344 40.019531 L 20.429688 36.101562 L 29.300781 36.101562 L 30.671875 40.019531 L 34.40625 40.019531 Z M 40.660156 19.972656 L 37.152344 19.972656 L 37.152344 40.019531 L 40.660156 40.019531 Z M 24.839844 23.335938 L 28.335938 33.335938 L 21.402344 33.335938 Z M 53.382812 40.019531 L 60.066406 40.019531 L 60.066406 46.703125 L 53.382812 46.703125 Z M 13.289062 53.382812 L 19.972656 53.382812 L 19.972656 60.066406 L 13.289062 60.066406 Z M 26.652344 53.382812 L 33.335938 53.382812 L 33.335938 60.066406 L 26.652344 60.066406 Z M 13.289062 -0.078125 L 19.972656 -0.078125 L 19.972656 6.605469 L 13.289062 6.605469 Z M 40.019531 53.382812 L 46.703125 53.382812 L 46.703125 60.066406 L 40.019531 60.066406 Z M 26.652344 -0.078125 L 33.335938 -0.078125 L 33.335938 6.605469 L 26.652344 6.605469 Z M 40.019531 -0.078125 L 46.703125 -0.078125 L 46.703125 6.605469 L 40.019531 6.605469 Z M 53.382812 26.652344 L 60.066406 26.652344 L 60.066406 33.335938 L 53.382812 33.335938 Z M -0.078125 40.019531 L 6.605469 40.019531 L 6.605469 46.703125 L -0.078125 46.703125 Z M 53.382812 13.289062 L 60.066406 13.289062 L 60.066406 19.972656 L 53.382812 19.972656 Z M -0.078125 26.652344 L 6.605469 26.652344 L 6.605469 33.335938 L -0.078125 33.335938 Z M -0.078125 13.289062 L 6.605469 13.289062 L 6.605469 19.972656 L -0.078125 19.972656 Z M -0.078125 13.289062 " fill-opacity="1" fill-rule="evenodd"/></svg>