<svg xmlns="http://www.w3.org/2000/svg" xmlns:xlink="http://www.w3.org/1999/xlink" width="500" zoomAndPan="magnify" viewBox="0 0 375 374.999991" height="500" preserveAspectRatio="xMidYMid meet" version="1.0"><path fill="#ffffff" d="M 281.25 93.75 L 281.25 281.25 L 93.75 281.25 L 93.75 93.75 Z M 172.667969 140.625 L 154.40625 140.625 L 119.738281 234.375 L 136.214844 234.375 L 142.757812 216.046875 L 184.257812 216.046875 L 190.664062 234.375 L 208.128906 234.375 Z M 237.375 140.625 L 220.964844 140.625 L 220.964844 234.375 L 237.375 234.375 Z M 163.398438 156.355469 L 179.742188 203.125 L 147.316406 203.125 Z M 296.875 234.375 L 328.125 234.375 L 328.125 265.625 L 296.875 265.625 Z M 109.375 296.875 L 140.625 296.875 L 140.625 328.125 L 109.375 328.125 Z M 171.875 296.875 L 203.125 296.875 L 203.125 328.125 L 171.875 328.125 Z M 109.375 46.875 L 140.625 46.875 L 140.625 78.125 L 109.375 78.125 Z M 234.375 296.875 L 265.625 296.875 L 265.625 328.125 L 234.375 328.125 Z M 171.875 46.875 L 203.125 46.875 L 203.125 78.125 L 171.875 78.125 Z M 234.375 46.875 L 265.625 46.875 L 265.625 78.125 L 234.375 78.125 Z M 296.875 171.875 L 328.125 171.875 L 328.125 203.125 L 296.875 203.125 Z M 46.875 234.375 L 78.125 234.375 L 78.125 265.625 L 46.875 265.625 Z M 296.875 109.375 L 328.125 109.375 L 328.125 140.625 L 296.875 140.625 Z M 46.875 171.875 L 78.125 171.875 L 78.125 203.125 L 46.875 203.125 Z M 46.875 109.375 L 78.125 109.375 L 78.125 140.625 L 46.875 140.625 Z M 46.875 109.375 " fill-opacity="1" fill-rule="evenodd"/></svg>